HIERARCHY
ROOT Hips
{
	OFFSET 0.000000 0.000000 0.000000
	CHANNELS 6 Xposition Yposition Zposition Zrotation Yrotation Xrotation 
	JOINT LHipJoint
	{
		OFFSET 0.000000 0.000000 0.000000
		CHANNELS 3 Zrotation Yrotation Xrotation
		JOINT LeftUpLeg
		{
			OFFSET 1.363060 -1.794630 0.839290
			CHANNELS 3 Zrotation Yrotation Xrotation
			JOINT LeftLeg
			{
				OFFSET 2.448110 -6.726130 0.000000
				CHANNELS 3 Zrotation Yrotation Xrotation
				JOINT LeftFoot
				{
					OFFSET 2.562200 -7.039590 0.000000
					CHANNELS 3 Zrotation Yrotation Xrotation
					JOINT LeftToeBase
					{
						OFFSET 0.157640 -0.433110 2.322550
						CHANNELS 3 Zrotation Yrotation Xrotation
						End Site
						{
							OFFSET 0.000000 0.000000 0.000000
						}
					}
				}
			}
		}
	}
	JOINT RHipJoint
	{
		OFFSET 0.000000 0.000000 0.000000
		CHANNELS 3 Zrotation Yrotation Xrotation
		JOINT RightUpLeg
		{
			OFFSET -1.305520 -1.794630 0.839290
			CHANNELS 3 Zrotation Yrotation Xrotation
			JOINT RightLeg
			{
				OFFSET -2.542530 -6.985550 0.000000
				CHANNELS 3 Zrotation Yrotation Xrotation
				JOINT RightFoot
				{
					OFFSET -2.568260 -7.056230 0.000000
					CHANNELS 3 Zrotation Yrotation Xrotation
					JOINT RightToeBase
					{
						OFFSET -0.164730 -0.452590 2.363150
						CHANNELS 3 Zrotation Yrotation Xrotation
						End Site
						{
							OFFSET 0.000000 0.000000 0.000000
						}
					}
				}
			}
		}
	}
}
MOTION
Frames: 11
Frame Time: 0.008333
15.684116 15.669641 2.310847 2.172364 -87.872895 26.111964 -12.365133 2.516572 -3.431380 -5.275955 12.261390 -17.370916 -2.446976 2.229051 40.768650 0.485013 0.617374 -13.938343 -0.207300 -0.000000 -72.783900 7.511744 0.947627 -0.176193 18.220975 0.421567 -71.561848 2.734375 -4.986590 49.412052 0.033575 3.466126 -10.324032 0.001700 -0.000000 -24.984300
15.475033 15.640286 2.295270 2.590661 -87.885879 25.424074 -12.384332 2.648903 -3.359843 -4.838922 11.970689 -16.141657 -2.337124 2.230713 40.441380 0.431604 0.425146 -12.686358 -0.139700 0.000000 -74.002200 7.590400 1.081953 -0.376924 17.907717 0.318348 -71.229450 2.491239 -5.108242 51.558406 0.014426 3.639477 -11.299074 -0.000701 0.000000 -18.960600
15.266610 15.613592 2.281379 2.090652 -87.906363 25.693289 -12.434610 2.767959 -3.270760 -4.379837 11.588048 -15.073481 -2.207822 2.254581 40.292731 0.386429 0.263485 -11.322342 -0.084200 -0.000001 -74.942401 7.633191 1.186894 -0.571992 17.708843 0.247922 -70.844796 2.282489 -5.203273 53.550106 -0.032501 3.706378 -12.413422 -0.011300 0.000000 -13.850600
15.059482 15.590072 2.268626 0.813295 -87.937301 26.783800 -12.514345 2.875032 -3.167032 -3.914695 11.118470 -14.189873 -2.060456 2.301532 40.351660 0.353387 0.148619 -9.864019 -0.043300 -0.000000 -75.498201 7.640881 1.264603 -0.760089 17.619586 0.210236 -70.407387 2.108848 -5.271086 55.348077 -0.106685 3.663839 -13.637896 -0.021600 -0.000000 -9.752400
14.854042 15.569890 2.256395 -1.030675 -87.971218 28.498933 -12.620995 2.968821 -3.046983 -3.461519 10.564527 -13.532808 -1.896559 2.369838 40.652005 0.336220 0.097641 -8.345512 -0.017600 0.000000 -75.546300 7.615254 1.315020 -0.931363 17.624656 0.214954 -69.938138 1.966628 -5.312575 56.925381 -0.207186 3.504018 -14.911568 -0.021200 -0.000000 -6.931301
14.650757 15.553140 2.244136 -3.177975 -87.997044 30.577395 -12.748536 3.046134 -2.914256 -3.033171 9.938944 -13.116197 -1.718232 2.455815 41.212235 0.337575 0.125470 -6.810129 -0.004700 0.000000 -74.967900 7.561081 1.338744 -1.083001 17.706817 0.257189 -69.446901 1.853379 -5.331176 58.279584 -0.331790 3.238366 -16.211763 -0.001300 -0.000000 -5.197700
14.450158 15.539716 2.231077 -5.278712 -88.002329 32.667864 -12.883551 3.104252 -2.772579 -2.647265 9.253050 -12.946892 -1.528523 2.554484 42.040104 0.359063 0.248754 -5.311546 0.000800 0.000001 -73.649200 7.490220 1.339301 -1.210969 17.838245 0.328917 -68.948533 1.764236 -5.332088 59.419538 -0.476144 2.882483 -17.499017 0.043999 -0.000001 -4.434400
14.252709 15.529482 2.217148 -7.263610 -87.982391 34.696144 -13.023688 3.139623 -2.627789 -2.296887 8.538530 -13.025183 -1.332180 2.662719 43.132506 0.399556 0.469927 -3.908000 0.006300 0.000000 -71.542200 7.406143 1.317441 -1.314501 18.010032 0.430217 -68.445311 1.694839 -5.317883 60.358239 -0.635547 2.454105 -18.739359 0.117400 0.000000 -4.406900
14.058669 15.522174 2.201620 -8.829527 -87.934138 36.354388 -13.151178 3.153308 -2.485555 -1.998912 7.812764 -13.337774 -1.134406 2.776361 44.469317 0.457741 0.801567 -2.659239 0.019600 0.000001 -68.613400 7.326497 1.282169 -1.392576 18.189368 0.548977 -67.948569 1.639054 -5.294140 61.122501 -0.802244 1.979062 -19.894321 0.216200 0.000000 -4.969799
13.868468 15.517627 2.184330 -9.920254 -87.861494 37.574848 -13.259233 3.146059 -2.352926 -1.753098 7.105951 -13.865399 -0.940498 2.893555 46.019186 0.530493 1.243898 -1.615451 0.047500 -0.000000 -64.951400 7.259958 1.240176 -1.447925 18.358951 0.677809 -67.458533 1.592193 -5.263858 61.740127 -0.968986 1.482819 -20.940442 0.334400 0.000000 -5.884700
13.682182 15.515695 2.165533 -10.640489 -87.770910 38.455427 -13.351375 3.117916 -2.234840 -1.545947 6.452343 -14.591997 -0.754627 3.013590 47.744401 0.613891 1.787257 -0.814107 0.092900 0.000000 -60.744800 7.206270 1.193315 -1.483299 18.516902 0.816227 -66.973048 1.550835 -5.228189 62.237505 -1.129928 0.986446 -21.864259 0.464900 -0.000000 -6.918900
